<svg width="596" height="598" viewBox="0 0 596 598" fill="none" xmlns="http://www.w3.org/2000/svg">
<path d="M266.732 245.088C266.377 245.122 265.298 245.257 264.319 245.408C254.213 246.939 245.852 252.475 239.522 261.848C233.787 270.311 230.537 279.785 229.302 291.58C228.947 295.08 228.933 304.301 229.302 307.649C229.856 312.781 231.332 319.63 232.893 324.307C233.83 327.101 235.406 330.752 236.754 333.276L237.733 335.093L236.598 337.112C234.227 341.353 231.602 348.47 230.608 353.383C229.543 358.617 229.132 362.638 229.018 368.561C228.805 380.474 230.452 389.779 234.412 399.017C237.748 406.791 242.545 413.269 248.223 417.677C252.964 421.346 258.329 423.617 264.603 424.61C267.285 425.031 273.162 425.064 317.802 424.93L358 424.812V385.892H316.028C275.717 385.892 273.999 385.875 273.048 385.589C267.342 383.806 263.851 377.243 264.234 368.982C264.39 365.448 264.986 363.059 266.462 359.929C267.243 358.297 269.003 356.177 270.366 355.218L271.359 354.511H358V315.473L273.9 315.389L272.764 315.002C269.514 313.909 267.314 311.671 265.738 307.817C263.467 302.315 263.723 295.046 266.363 289.712C267.853 286.717 270.195 284.563 273.048 283.554C273.857 283.268 276.1 283.251 315.957 283.2L358 283.167V245.189L344.345 245.088C331.045 244.971 268.009 244.971 266.732 245.088Z" fill="#006AB3"/>
<path d="M283.25 159.946C252.456 163.272 225.227 174.34 200.214 193.722C197.513 195.787 196.108 197.22 196.324 197.737C196.972 199.801 202.051 208.231 205.833 213.506C210.1 219.585 219.663 230.653 221.5 231.685C222.364 232.201 223.066 231.914 225.335 230.194C242.083 217.463 258.669 209.951 277.848 206.396C286.113 204.847 301.51 204.274 309.938 205.191C331.818 207.6 352.456 215.972 369.96 229.506C371.851 230.997 373.634 232.201 373.85 232.201C375.2 232.201 385.519 220.388 391.084 212.474C394.433 207.715 400.538 197.335 400.16 196.991C389.679 188.561 381.089 182.884 370.77 177.436C354.023 168.663 338.193 163.559 319.663 160.806C312.369 159.717 290.327 159.201 283.25 159.946Z" fill="#006AB3"/>
<path d="M134.898 315.179C133.872 324.985 134.034 345.114 135.114 354.346C142.624 416.107 179.361 468.578 231.873 492.835L237.761 495.53L238.734 494.211C239.328 493.466 241.435 489.222 243.542 484.806C247.378 476.549 250.781 466.628 252.672 458.256L253.699 453.439L252.078 452.865C249.161 451.776 239.598 446.672 234.952 443.69C213.936 430.214 195.892 408.136 186.546 384.51C178.01 362.833 175.147 341.96 177.416 317.817L177.794 314.319L174.336 313.172C164.882 310.076 151.43 307.897 141.651 307.897H135.654L134.898 315.179Z" fill="#006AB3"/>
<path d="M442.137 308.527C435.114 309.502 421.014 312.943 419.177 314.147C418.582 314.549 418.582 315.925 419.123 322.577C421.824 354.059 412.856 386.402 394.109 412.494C389.787 418.515 380.495 428.666 375.092 433.31C366.665 440.536 351.321 450.227 344.244 452.808L342.515 453.439L343.218 456.535C344.622 462.901 346.351 468.922 348.458 474.484C350.727 480.62 355.968 492.032 357.48 494.211L358.453 495.53L364.341 492.835C390.165 480.907 413.882 460.607 430.9 435.891C446.999 412.379 457.426 384.223 461.046 354.404C462.18 345.114 462.343 325.043 461.316 315.179L460.56 307.897L453.212 307.954C449.16 308.011 444.19 308.298 442.137 308.527Z" fill="#006AB3"/>
<path d="M322.418 7.29312V3.62304C322.418 1.85323 322.32 0.839941 322.779 0.368118C323.45 -0.321946 325.312 0.146217 330.414 1.09985C407.507 15.8376 467.259 81.4405 478.55 163.731C480.873 180.877 480.981 202.037 478.82 217.521C478.388 220.675 478.064 223.255 478.172 223.312C478.195 223.337 478.661 223.537 479.411 223.858C480.381 224.274 481.828 224.895 483.412 225.606C496.648 231.226 516.043 243.269 526.902 252.558C566.124 286.048 589.463 331.007 595.352 384.452C596.216 392.595 596.216 416.451 595.352 424.594C594.379 433.253 592.813 442.83 591.138 450.055C588.707 460.549 583.25 477.638 582.332 477.638C581.359 477.638 576.875 474.656 576.875 474.026C576.875 473.624 577.47 471.33 578.226 468.865C579.955 463.187 582.008 452.12 582.872 444.435C583.736 436.407 583.25 415.992 582.008 408.824C577.794 384.051 568.123 361.514 553.969 343.508C546.135 333.587 534.574 322.806 524.417 316.04C503.995 302.37 481.179 295.287 458.106 294.92C450.815 259.858 433.667 228.754 409.924 205.088C419.315 186.872 424.774 166.232 425.444 144.463C426.632 105.64 412.91 69.6847 386.654 42.6751C371.473 27.0772 353.861 16.239 333.764 9.98837C330.36 8.95615 326.416 7.92392 324.957 7.69454L322.418 7.29312Z" fill="#006AB3"/>
<path d="M346.813 500.118C331.394 505.24 314.999 508 298 508C281.068 508 264.735 505.262 249.37 500.178C234.055 527.154 210.292 547.686 181.9 558.208C135.546 575.355 83.4665 562.337 49.1067 525.005C46.3514 521.966 43.8122 519.5 43.5421 519.5C42.7858 519.5 38.2477 522.425 38.2477 522.884C38.2477 523.801 48.0802 535.729 53.9689 541.922C96.7566 586.881 157.048 606.436 216.53 594.622C231.819 591.583 247.54 585.963 262.721 577.992C273.796 572.258 282.008 566.925 291.3 559.585C294.812 556.775 297.891 554.481 298.161 554.481C298.377 554.481 301.132 556.545 304.266 559.068C321.554 573.118 344.406 584.989 366.016 591.182C380.819 595.425 393.137 597.375 408.588 597.891C463.531 599.726 517.124 574.437 552.726 529.88C555.643 526.324 557.966 523.17 557.966 522.941C557.966 522.425 553.428 519.5 552.672 519.5C552.402 519.5 549.863 521.966 547.107 525.005C521.446 552.875 484.817 567.9 448.566 565.376C439.382 564.746 434.844 564.058 426.416 561.936C394.487 553.907 366.989 533.206 348.944 503.73C348.215 502.536 347.504 501.332 346.813 500.118Z" fill="#006AB3"/>
<path d="M120.149 149.337C136.141 73.5842 193.191 15.4362 265.584 1.09988C268.447 0.526426 271.473 0.0103216 272.337 0.0103216C273.796 -0.0470224 273.796 0.0103378 273.796 3.62286V7.29315L271.257 7.69458C267.097 8.32538 256.724 11.7087 250.025 14.576C212.694 30.5179 183.736 66.072 174.228 107.762C171.419 119.976 170.879 125.367 170.879 140.162C170.933 158.398 172.391 168.089 177.632 184.375C179.942 191.515 182.823 198.395 186.212 204.952C162.395 228.638 145.194 259.8 137.89 294.936C119.237 295.301 100.62 300.025 83.4123 309.158C55.1033 324.183 33.8176 348.669 21.77 380.037C16.0974 394.889 13.3962 409.111 13.018 426.544C12.6398 443.059 14.2066 456.306 18.0423 469.037C18.7446 471.388 19.3389 473.624 19.3389 474.026C19.3389 474.656 14.8548 477.638 13.8824 477.638C12.8559 477.638 7.02125 459.116 4.69818 448.335C-14.2645 360.769 25.4437 271.196 100.916 231.398C105.833 228.818 111.667 225.95 113.882 225.033C114.696 224.696 115.466 224.374 116.117 224.102C117.239 223.634 118.008 223.312 118.042 223.312C118.15 223.255 117.826 220.675 117.394 217.521C114.531 197.163 115.611 170.727 120.149 149.337Z" fill="#006AB3"/>
</svg>
