<?xml version="1.0" standalone="no"?>
<!DOCTYPE svg PUBLIC "-//W3C//DTD SVG 20010904//EN"
 "http://www.w3.org/TR/2001/REC-SVG-20010904/DTD/svg10.dtd">
<svg version="1.0" xmlns="http://www.w3.org/2000/svg"
 width="1659.000000pt" height="311.000000pt" viewBox="0 0 1659.000000 311.000000"
 preserveAspectRatio="xMidYMid meet">

<g transform="translate(0.000000,311.000000) scale(0.100000,-0.100000)"
fill="#000000" stroke="none">
<path d="M930 2871 c-85 -26 -157 -88 -191 -166 -42 -95 -50 -154 -59 -430 -8
-268 -14 -315 -50 -385 -40 -77 -133 -137 -234 -149 l-51 -6 -3 -141 -3 -141
57 -7 c137 -16 224 -90 264 -221 7 -23 15 -156 20 -310 9 -287 17 -342 66
-442 14 -29 45 -70 70 -92 68 -60 113 -71 286 -71 l148 0 0 128 0 129 -56 -5
c-86 -7 -157 12 -193 53 -16 19 -35 51 -41 72 -6 21 -16 137 -20 258 -14 321
-42 407 -182 547 -49 49 -78 86 -78 100 0 14 28 47 80 95 139 129 166 213 179
544 10 251 21 299 76 348 37 32 106 51 185 51 l50 0 0 125 0 125 -147 -1 c-82
0 -159 -4 -173 -8z"/>
<path d="M14910 2757 l0 -124 89 -6 c126 -8 170 -36 200 -127 15 -49 30 -214
31 -345 1 -212 45 -330 172 -459 101 -102 101 -110 6 -196 -140 -127 -166
-197 -179 -489 -10 -230 -19 -296 -52 -361 -30 -60 -85 -88 -190 -96 l-77 -7
0 -125 0 -124 153 4 c172 6 220 18 285 74 95 81 132 220 132 499 0 271 21 385
85 469 34 45 128 92 200 101 l55 7 0 144 0 144 -38 0 c-111 0 -224 76 -261
174 -30 80 -41 188 -41 391 0 202 -14 303 -54 390 -33 72 -86 128 -149 156
-46 21 -70 24 -209 27 l-158 4 0 -125z"/>
<path d="M10600 2540 c-150 -26 -287 -129 -354 -266 -22 -45 -616 -1685 -616
-1701 0 -2 104 -2 231 -1 l231 3 262 757 c144 417 271 767 281 778 24 27 68
25 102 -4 l28 -24 6 -559 c6 -601 5 -597 61 -707 25 -48 100 -129 155 -168
113 -77 311 -110 438 -73 126 36 242 129 302 242 17 32 121 332 231 666 110
335 208 617 218 628 40 44 118 7 134 -66 5 -22 10 -355 10 -757 l0 -718 215 0
215 0 0 773 c0 849 1 831 -61 948 -122 228 -442 323 -685 204 -84 -41 -162
-119 -211 -210 -17 -33 -119 -329 -226 -658 -107 -329 -202 -609 -211 -622
-23 -35 -83 -35 -117 1 l-24 26 -6 561 c-6 605 -4 592 -62 700 -92 175 -334
284 -547 247z"/>
<path d="M1978 2530 c-139 -24 -237 -69 -319 -147 -103 -98 -149 -219 -149
-393 0 -112 19 -209 53 -277 23 -45 88 -114 131 -138 16 -9 12 -14 -31 -41
-99 -62 -154 -190 -154 -360 -1 -297 149 -502 426 -581 53 -15 130 -17 628
-21 l567 -3 0 210 0 211 -544 0 -543 0 -34 23 c-99 67 -115 197 -33 286 23 26
48 42 79 50 29 7 213 11 559 11 l516 0 0 205 0 205 -535 0 c-586 0 -577 -1
-628 59 -73 87 -55 206 42 272 l35 24 543 3 543 3 0 204 0 205 -552 -1 c-304
-1 -574 -5 -600 -9z"/>
<path d="M3400 2335 l0 -205 528 0 c491 0 530 -2 567 -19 72 -33 105 -86 105
-168 0 -57 -32 -117 -80 -146 -33 -21 -49 -22 -340 -28 -337 -7 -368 -11 -496
-74 -125 -61 -210 -164 -260 -315 -15 -48 -18 -103 -22 -432 l-3 -378 210 0
211 0 0 330 c0 266 3 336 14 358 23 43 71 83 112 93 22 4 156 9 300 9 297 0
359 10 485 76 186 98 283 276 283 519 -1 248 -97 417 -294 513 -144 70 -167
72 -780 72 l-540 0 0 -205z"/>
<path d="M5210 1555 l0 -985 205 0 205 0 0 985 0 985 -205 0 -205 0 0 -985z"/>
<path d="M5900 1555 l0 -985 430 0 c567 0 680 13 860 102 67 33 104 61 171
128 76 74 93 98 137 190 90 186 117 345 109 635 -4 139 -11 213 -26 277 -71
305 -238 501 -501 588 -134 43 -225 50 -717 50 l-463 0 0 -985z m1051 547
c111 -44 190 -145 224 -283 34 -141 29 -422 -10 -551 -35 -117 -108 -208 -200
-250 -48 -22 -61 -23 -352 -26 l-303 -3 0 564 c0 310 3 567 8 571 4 4 135 6
292 4 266 -4 289 -6 341 -26z"/>
<path d="M8298 2530 c-139 -24 -237 -69 -319 -147 -103 -98 -149 -219 -149
-393 0 -112 19 -209 53 -277 23 -45 88 -114 131 -138 16 -9 12 -14 -31 -41
-99 -62 -154 -190 -154 -360 -1 -297 149 -502 426 -581 53 -15 130 -17 628
-21 l567 -3 0 210 0 211 -544 0 -543 0 -34 23 c-99 67 -115 197 -33 286 23 26
48 42 79 50 29 7 213 11 559 11 l516 0 0 205 0 205 -535 0 c-586 0 -577 -1
-628 59 -73 87 -55 206 42 272 l35 24 543 3 543 3 0 204 0 205 -552 -1 c-304
-1 -574 -5 -600 -9z"/>
<path d="M12910 2533 c0 -4 164 -254 365 -555 l365 -549 0 -429 0 -430 205 0
205 0 0 443 0 442 365 538 c201 295 365 539 365 542 0 3 -111 5 -248 5 l-247
0 -209 -362 c-115 -200 -215 -371 -221 -381 -11 -15 -43 35 -231 363 l-219
380 -247 0 c-137 0 -248 -3 -248 -7z"/>
</g>
</svg>
